# xmcd
#
# Track frame offsets: 
#        182
#        29415
#        44602
#        72507
#        101257
#        120947
#        130762
#        155400
#        180445
#        192897
#        221762
#        238760
#
# Disc length: 3643 seconds
#
# Revision: 1
# Processed by: cddbd v1.5.2PL0 Copyright (c) Steve Scherf et al.
# Submitted via: ExactAudioCopy v1.0b3
#
DISCID=a30e390c
DTITLE=Beau Jocque and The Zydeco Hi-Rollers - Pick Up on This!
DYEAR=1994
DGENRE=Zydeco
TTITLE0=Give It to Me
TTITLE1='Gardez Donc! (Look at That!)
TTITLE2=Zydeco Boogie Woogie
TTITLE3=Mardi Gras Blues
TTITLE4=Comin' In
TTITLE5=Don't Tell Your Mama, Don't Tell Your Papa
TTITLE6=Yesterday
TTITLE7=Do Right Sometime
TTITLE8=Hucklebuck
TTITLE9=Pick Up on This
TTITLE10=Chere Mignonne (Dear Cute One)
TTITLE11=Hi-Rollers Theme \\ Low Rider
EXTD=
EXTT0=
EXTT1=
EXTT2=
EXTT3=
EXTT4=
EXTT5=
EXTT6=
EXTT7=
EXTT8=
EXTT9=
EXTT10=
EXTT11=
PLAYORDER=
